G04 #@! TF.GenerationSoftware,KiCad,Pcbnew,5.0.1-33cea8e~67~ubuntu18.04.1*
G04 #@! TF.CreationDate,2018-12-04T13:55:11-08:00*
G04 #@! TF.ProjectId,snooping-board,736E6F6F70696E672D626F6172642E6B,rev?*
G04 #@! TF.SameCoordinates,Original*
G04 #@! TF.FileFunction,Soldermask,Top*
G04 #@! TF.FilePolarity,Negative*
%FSLAX46Y46*%
G04 Gerber Fmt 4.6, Leading zero omitted, Abs format (unit mm)*
G04 Created by KiCad (PCBNEW 5.0.1-33cea8e~67~ubuntu18.04.1) date Tue 04 Dec 2018 01:55:11 PM PST*
%MOMM*%
%LPD*%
G01*
G04 APERTURE LIST*
%ADD10C,0.100000*%
G04 APERTURE END LIST*
D10*
G36*
X149970443Y-105705519D02*
X150036627Y-105712037D01*
X150149853Y-105746384D01*
X150206467Y-105763557D01*
X150345087Y-105837652D01*
X150362991Y-105847222D01*
X150398729Y-105876552D01*
X150500186Y-105959814D01*
X150583448Y-106061271D01*
X150612778Y-106097009D01*
X150612779Y-106097011D01*
X150696443Y-106253533D01*
X150696443Y-106253534D01*
X150747963Y-106423373D01*
X150765359Y-106600000D01*
X150747963Y-106776627D01*
X150713616Y-106889853D01*
X150696443Y-106946467D01*
X150622348Y-107085087D01*
X150612778Y-107102991D01*
X150583448Y-107138729D01*
X150500186Y-107240186D01*
X150398729Y-107323448D01*
X150362991Y-107352778D01*
X150362989Y-107352779D01*
X150206467Y-107436443D01*
X150149853Y-107453616D01*
X150036627Y-107487963D01*
X149970442Y-107494482D01*
X149904260Y-107501000D01*
X149815740Y-107501000D01*
X149749558Y-107494482D01*
X149683373Y-107487963D01*
X149570147Y-107453616D01*
X149513533Y-107436443D01*
X149357011Y-107352779D01*
X149357009Y-107352778D01*
X149321271Y-107323448D01*
X149219814Y-107240186D01*
X149136552Y-107138729D01*
X149107222Y-107102991D01*
X149097652Y-107085087D01*
X149023557Y-106946467D01*
X149006384Y-106889853D01*
X148972037Y-106776627D01*
X148954641Y-106600000D01*
X148972037Y-106423373D01*
X149023557Y-106253534D01*
X149023557Y-106253533D01*
X149107221Y-106097011D01*
X149107222Y-106097009D01*
X149136552Y-106061271D01*
X149219814Y-105959814D01*
X149321271Y-105876552D01*
X149357009Y-105847222D01*
X149374913Y-105837652D01*
X149513533Y-105763557D01*
X149570147Y-105746384D01*
X149683373Y-105712037D01*
X149749557Y-105705519D01*
X149815740Y-105699000D01*
X149904260Y-105699000D01*
X149970443Y-105705519D01*
X149970443Y-105705519D01*
G37*
G36*
X140601000Y-107501000D02*
X138799000Y-107501000D01*
X138799000Y-105699000D01*
X140601000Y-105699000D01*
X140601000Y-107501000D01*
X140601000Y-107501000D01*
G37*
G36*
X142350443Y-105705519D02*
X142416627Y-105712037D01*
X142529853Y-105746384D01*
X142586467Y-105763557D01*
X142725087Y-105837652D01*
X142742991Y-105847222D01*
X142778729Y-105876552D01*
X142880186Y-105959814D01*
X142963448Y-106061271D01*
X142992778Y-106097009D01*
X142992779Y-106097011D01*
X143076443Y-106253533D01*
X143076443Y-106253534D01*
X143127963Y-106423373D01*
X143145359Y-106600000D01*
X143127963Y-106776627D01*
X143093616Y-106889853D01*
X143076443Y-106946467D01*
X143002348Y-107085087D01*
X142992778Y-107102991D01*
X142963448Y-107138729D01*
X142880186Y-107240186D01*
X142778729Y-107323448D01*
X142742991Y-107352778D01*
X142742989Y-107352779D01*
X142586467Y-107436443D01*
X142529853Y-107453616D01*
X142416627Y-107487963D01*
X142350442Y-107494482D01*
X142284260Y-107501000D01*
X142195740Y-107501000D01*
X142129558Y-107494482D01*
X142063373Y-107487963D01*
X141950147Y-107453616D01*
X141893533Y-107436443D01*
X141737011Y-107352779D01*
X141737009Y-107352778D01*
X141701271Y-107323448D01*
X141599814Y-107240186D01*
X141516552Y-107138729D01*
X141487222Y-107102991D01*
X141477652Y-107085087D01*
X141403557Y-106946467D01*
X141386384Y-106889853D01*
X141352037Y-106776627D01*
X141334641Y-106600000D01*
X141352037Y-106423373D01*
X141403557Y-106253534D01*
X141403557Y-106253533D01*
X141487221Y-106097011D01*
X141487222Y-106097009D01*
X141516552Y-106061271D01*
X141599814Y-105959814D01*
X141701271Y-105876552D01*
X141737009Y-105847222D01*
X141754913Y-105837652D01*
X141893533Y-105763557D01*
X141950147Y-105746384D01*
X142063373Y-105712037D01*
X142129557Y-105705519D01*
X142195740Y-105699000D01*
X142284260Y-105699000D01*
X142350443Y-105705519D01*
X142350443Y-105705519D01*
G37*
G36*
X144890443Y-105705519D02*
X144956627Y-105712037D01*
X145069853Y-105746384D01*
X145126467Y-105763557D01*
X145265087Y-105837652D01*
X145282991Y-105847222D01*
X145318729Y-105876552D01*
X145420186Y-105959814D01*
X145503448Y-106061271D01*
X145532778Y-106097009D01*
X145532779Y-106097011D01*
X145616443Y-106253533D01*
X145616443Y-106253534D01*
X145667963Y-106423373D01*
X145685359Y-106600000D01*
X145667963Y-106776627D01*
X145633616Y-106889853D01*
X145616443Y-106946467D01*
X145542348Y-107085087D01*
X145532778Y-107102991D01*
X145503448Y-107138729D01*
X145420186Y-107240186D01*
X145318729Y-107323448D01*
X145282991Y-107352778D01*
X145282989Y-107352779D01*
X145126467Y-107436443D01*
X145069853Y-107453616D01*
X144956627Y-107487963D01*
X144890442Y-107494482D01*
X144824260Y-107501000D01*
X144735740Y-107501000D01*
X144669558Y-107494482D01*
X144603373Y-107487963D01*
X144490147Y-107453616D01*
X144433533Y-107436443D01*
X144277011Y-107352779D01*
X144277009Y-107352778D01*
X144241271Y-107323448D01*
X144139814Y-107240186D01*
X144056552Y-107138729D01*
X144027222Y-107102991D01*
X144017652Y-107085087D01*
X143943557Y-106946467D01*
X143926384Y-106889853D01*
X143892037Y-106776627D01*
X143874641Y-106600000D01*
X143892037Y-106423373D01*
X143943557Y-106253534D01*
X143943557Y-106253533D01*
X144027221Y-106097011D01*
X144027222Y-106097009D01*
X144056552Y-106061271D01*
X144139814Y-105959814D01*
X144241271Y-105876552D01*
X144277009Y-105847222D01*
X144294913Y-105837652D01*
X144433533Y-105763557D01*
X144490147Y-105746384D01*
X144603373Y-105712037D01*
X144669557Y-105705519D01*
X144735740Y-105699000D01*
X144824260Y-105699000D01*
X144890443Y-105705519D01*
X144890443Y-105705519D01*
G37*
G36*
X147430443Y-105705519D02*
X147496627Y-105712037D01*
X147609853Y-105746384D01*
X147666467Y-105763557D01*
X147805087Y-105837652D01*
X147822991Y-105847222D01*
X147858729Y-105876552D01*
X147960186Y-105959814D01*
X148043448Y-106061271D01*
X148072778Y-106097009D01*
X148072779Y-106097011D01*
X148156443Y-106253533D01*
X148156443Y-106253534D01*
X148207963Y-106423373D01*
X148225359Y-106600000D01*
X148207963Y-106776627D01*
X148173616Y-106889853D01*
X148156443Y-106946467D01*
X148082348Y-107085087D01*
X148072778Y-107102991D01*
X148043448Y-107138729D01*
X147960186Y-107240186D01*
X147858729Y-107323448D01*
X147822991Y-107352778D01*
X147822989Y-107352779D01*
X147666467Y-107436443D01*
X147609853Y-107453616D01*
X147496627Y-107487963D01*
X147430442Y-107494482D01*
X147364260Y-107501000D01*
X147275740Y-107501000D01*
X147209558Y-107494482D01*
X147143373Y-107487963D01*
X147030147Y-107453616D01*
X146973533Y-107436443D01*
X146817011Y-107352779D01*
X146817009Y-107352778D01*
X146781271Y-107323448D01*
X146679814Y-107240186D01*
X146596552Y-107138729D01*
X146567222Y-107102991D01*
X146557652Y-107085087D01*
X146483557Y-106946467D01*
X146466384Y-106889853D01*
X146432037Y-106776627D01*
X146414641Y-106600000D01*
X146432037Y-106423373D01*
X146483557Y-106253534D01*
X146483557Y-106253533D01*
X146567221Y-106097011D01*
X146567222Y-106097009D01*
X146596552Y-106061271D01*
X146679814Y-105959814D01*
X146781271Y-105876552D01*
X146817009Y-105847222D01*
X146834913Y-105837652D01*
X146973533Y-105763557D01*
X147030147Y-105746384D01*
X147143373Y-105712037D01*
X147209557Y-105705519D01*
X147275740Y-105699000D01*
X147364260Y-105699000D01*
X147430443Y-105705519D01*
X147430443Y-105705519D01*
G37*
G36*
X157537000Y-102691000D02*
X154635000Y-102691000D01*
X154635000Y-101589000D01*
X157537000Y-101589000D01*
X157537000Y-102691000D01*
X157537000Y-102691000D01*
G37*
G36*
X136963000Y-102691000D02*
X134061000Y-102691000D01*
X134061000Y-101589000D01*
X136963000Y-101589000D01*
X136963000Y-102691000D01*
X136963000Y-102691000D01*
G37*
G36*
X153637000Y-100641000D02*
X151835000Y-100641000D01*
X151835000Y-99939000D01*
X153637000Y-99939000D01*
X153637000Y-100641000D01*
X153637000Y-100641000D01*
G37*
G36*
X133063000Y-100641000D02*
X131261000Y-100641000D01*
X131261000Y-99939000D01*
X133063000Y-99939000D01*
X133063000Y-100641000D01*
X133063000Y-100641000D01*
G37*
G36*
X153637000Y-99391000D02*
X151835000Y-99391000D01*
X151835000Y-98689000D01*
X153637000Y-98689000D01*
X153637000Y-99391000D01*
X153637000Y-99391000D01*
G37*
G36*
X133063000Y-99391000D02*
X131261000Y-99391000D01*
X131261000Y-98689000D01*
X133063000Y-98689000D01*
X133063000Y-99391000D01*
X133063000Y-99391000D01*
G37*
G36*
X133063000Y-98141000D02*
X131261000Y-98141000D01*
X131261000Y-97439000D01*
X133063000Y-97439000D01*
X133063000Y-98141000D01*
X133063000Y-98141000D01*
G37*
G36*
X153637000Y-98141000D02*
X151835000Y-98141000D01*
X151835000Y-97439000D01*
X153637000Y-97439000D01*
X153637000Y-98141000D01*
X153637000Y-98141000D01*
G37*
G36*
X153637000Y-96891000D02*
X151835000Y-96891000D01*
X151835000Y-96189000D01*
X153637000Y-96189000D01*
X153637000Y-96891000D01*
X153637000Y-96891000D01*
G37*
G36*
X133063000Y-96891000D02*
X131261000Y-96891000D01*
X131261000Y-96189000D01*
X133063000Y-96189000D01*
X133063000Y-96891000D01*
X133063000Y-96891000D01*
G37*
G36*
X153637000Y-95641000D02*
X151835000Y-95641000D01*
X151835000Y-94939000D01*
X153637000Y-94939000D01*
X153637000Y-95641000D01*
X153637000Y-95641000D01*
G37*
G36*
X133063000Y-95641000D02*
X131261000Y-95641000D01*
X131261000Y-94939000D01*
X133063000Y-94939000D01*
X133063000Y-95641000D01*
X133063000Y-95641000D01*
G37*
G36*
X157537000Y-93991000D02*
X154635000Y-93991000D01*
X154635000Y-92889000D01*
X157537000Y-92889000D01*
X157537000Y-93991000D01*
X157537000Y-93991000D01*
G37*
G36*
X136963000Y-93991000D02*
X134061000Y-93991000D01*
X134061000Y-92889000D01*
X136963000Y-92889000D01*
X136963000Y-93991000D01*
X136963000Y-93991000D01*
G37*
G36*
X140601000Y-89881000D02*
X138799000Y-89881000D01*
X138799000Y-88079000D01*
X140601000Y-88079000D01*
X140601000Y-89881000D01*
X140601000Y-89881000D01*
G37*
G36*
X142350443Y-88085519D02*
X142416627Y-88092037D01*
X142529853Y-88126384D01*
X142586467Y-88143557D01*
X142725087Y-88217652D01*
X142742991Y-88227222D01*
X142778729Y-88256552D01*
X142880186Y-88339814D01*
X142963448Y-88441271D01*
X142992778Y-88477009D01*
X142992779Y-88477011D01*
X143076443Y-88633533D01*
X143076443Y-88633534D01*
X143127963Y-88803373D01*
X143145359Y-88980000D01*
X143127963Y-89156627D01*
X143093616Y-89269853D01*
X143076443Y-89326467D01*
X143002348Y-89465087D01*
X142992778Y-89482991D01*
X142963448Y-89518729D01*
X142880186Y-89620186D01*
X142778729Y-89703448D01*
X142742991Y-89732778D01*
X142742989Y-89732779D01*
X142586467Y-89816443D01*
X142529853Y-89833616D01*
X142416627Y-89867963D01*
X142350443Y-89874481D01*
X142284260Y-89881000D01*
X142195740Y-89881000D01*
X142129557Y-89874481D01*
X142063373Y-89867963D01*
X141950147Y-89833616D01*
X141893533Y-89816443D01*
X141737011Y-89732779D01*
X141737009Y-89732778D01*
X141701271Y-89703448D01*
X141599814Y-89620186D01*
X141516552Y-89518729D01*
X141487222Y-89482991D01*
X141477652Y-89465087D01*
X141403557Y-89326467D01*
X141386384Y-89269853D01*
X141352037Y-89156627D01*
X141334641Y-88980000D01*
X141352037Y-88803373D01*
X141403557Y-88633534D01*
X141403557Y-88633533D01*
X141487221Y-88477011D01*
X141487222Y-88477009D01*
X141516552Y-88441271D01*
X141599814Y-88339814D01*
X141701271Y-88256552D01*
X141737009Y-88227222D01*
X141754913Y-88217652D01*
X141893533Y-88143557D01*
X141950147Y-88126384D01*
X142063373Y-88092037D01*
X142129557Y-88085519D01*
X142195740Y-88079000D01*
X142284260Y-88079000D01*
X142350443Y-88085519D01*
X142350443Y-88085519D01*
G37*
G36*
X144890443Y-88085519D02*
X144956627Y-88092037D01*
X145069853Y-88126384D01*
X145126467Y-88143557D01*
X145265087Y-88217652D01*
X145282991Y-88227222D01*
X145318729Y-88256552D01*
X145420186Y-88339814D01*
X145503448Y-88441271D01*
X145532778Y-88477009D01*
X145532779Y-88477011D01*
X145616443Y-88633533D01*
X145616443Y-88633534D01*
X145667963Y-88803373D01*
X145685359Y-88980000D01*
X145667963Y-89156627D01*
X145633616Y-89269853D01*
X145616443Y-89326467D01*
X145542348Y-89465087D01*
X145532778Y-89482991D01*
X145503448Y-89518729D01*
X145420186Y-89620186D01*
X145318729Y-89703448D01*
X145282991Y-89732778D01*
X145282989Y-89732779D01*
X145126467Y-89816443D01*
X145069853Y-89833616D01*
X144956627Y-89867963D01*
X144890443Y-89874481D01*
X144824260Y-89881000D01*
X144735740Y-89881000D01*
X144669557Y-89874481D01*
X144603373Y-89867963D01*
X144490147Y-89833616D01*
X144433533Y-89816443D01*
X144277011Y-89732779D01*
X144277009Y-89732778D01*
X144241271Y-89703448D01*
X144139814Y-89620186D01*
X144056552Y-89518729D01*
X144027222Y-89482991D01*
X144017652Y-89465087D01*
X143943557Y-89326467D01*
X143926384Y-89269853D01*
X143892037Y-89156627D01*
X143874641Y-88980000D01*
X143892037Y-88803373D01*
X143943557Y-88633534D01*
X143943557Y-88633533D01*
X144027221Y-88477011D01*
X144027222Y-88477009D01*
X144056552Y-88441271D01*
X144139814Y-88339814D01*
X144241271Y-88256552D01*
X144277009Y-88227222D01*
X144294913Y-88217652D01*
X144433533Y-88143557D01*
X144490147Y-88126384D01*
X144603373Y-88092037D01*
X144669557Y-88085519D01*
X144735740Y-88079000D01*
X144824260Y-88079000D01*
X144890443Y-88085519D01*
X144890443Y-88085519D01*
G37*
G36*
X147430443Y-88085519D02*
X147496627Y-88092037D01*
X147609853Y-88126384D01*
X147666467Y-88143557D01*
X147805087Y-88217652D01*
X147822991Y-88227222D01*
X147858729Y-88256552D01*
X147960186Y-88339814D01*
X148043448Y-88441271D01*
X148072778Y-88477009D01*
X148072779Y-88477011D01*
X148156443Y-88633533D01*
X148156443Y-88633534D01*
X148207963Y-88803373D01*
X148225359Y-88980000D01*
X148207963Y-89156627D01*
X148173616Y-89269853D01*
X148156443Y-89326467D01*
X148082348Y-89465087D01*
X148072778Y-89482991D01*
X148043448Y-89518729D01*
X147960186Y-89620186D01*
X147858729Y-89703448D01*
X147822991Y-89732778D01*
X147822989Y-89732779D01*
X147666467Y-89816443D01*
X147609853Y-89833616D01*
X147496627Y-89867963D01*
X147430443Y-89874481D01*
X147364260Y-89881000D01*
X147275740Y-89881000D01*
X147209557Y-89874481D01*
X147143373Y-89867963D01*
X147030147Y-89833616D01*
X146973533Y-89816443D01*
X146817011Y-89732779D01*
X146817009Y-89732778D01*
X146781271Y-89703448D01*
X146679814Y-89620186D01*
X146596552Y-89518729D01*
X146567222Y-89482991D01*
X146557652Y-89465087D01*
X146483557Y-89326467D01*
X146466384Y-89269853D01*
X146432037Y-89156627D01*
X146414641Y-88980000D01*
X146432037Y-88803373D01*
X146483557Y-88633534D01*
X146483557Y-88633533D01*
X146567221Y-88477011D01*
X146567222Y-88477009D01*
X146596552Y-88441271D01*
X146679814Y-88339814D01*
X146781271Y-88256552D01*
X146817009Y-88227222D01*
X146834913Y-88217652D01*
X146973533Y-88143557D01*
X147030147Y-88126384D01*
X147143373Y-88092037D01*
X147209557Y-88085519D01*
X147275740Y-88079000D01*
X147364260Y-88079000D01*
X147430443Y-88085519D01*
X147430443Y-88085519D01*
G37*
G36*
X149970443Y-88085519D02*
X150036627Y-88092037D01*
X150149853Y-88126384D01*
X150206467Y-88143557D01*
X150345087Y-88217652D01*
X150362991Y-88227222D01*
X150398729Y-88256552D01*
X150500186Y-88339814D01*
X150583448Y-88441271D01*
X150612778Y-88477009D01*
X150612779Y-88477011D01*
X150696443Y-88633533D01*
X150696443Y-88633534D01*
X150747963Y-88803373D01*
X150765359Y-88980000D01*
X150747963Y-89156627D01*
X150713616Y-89269853D01*
X150696443Y-89326467D01*
X150622348Y-89465087D01*
X150612778Y-89482991D01*
X150583448Y-89518729D01*
X150500186Y-89620186D01*
X150398729Y-89703448D01*
X150362991Y-89732778D01*
X150362989Y-89732779D01*
X150206467Y-89816443D01*
X150149853Y-89833616D01*
X150036627Y-89867963D01*
X149970443Y-89874481D01*
X149904260Y-89881000D01*
X149815740Y-89881000D01*
X149749557Y-89874481D01*
X149683373Y-89867963D01*
X149570147Y-89833616D01*
X149513533Y-89816443D01*
X149357011Y-89732779D01*
X149357009Y-89732778D01*
X149321271Y-89703448D01*
X149219814Y-89620186D01*
X149136552Y-89518729D01*
X149107222Y-89482991D01*
X149097652Y-89465087D01*
X149023557Y-89326467D01*
X149006384Y-89269853D01*
X148972037Y-89156627D01*
X148954641Y-88980000D01*
X148972037Y-88803373D01*
X149023557Y-88633534D01*
X149023557Y-88633533D01*
X149107221Y-88477011D01*
X149107222Y-88477009D01*
X149136552Y-88441271D01*
X149219814Y-88339814D01*
X149321271Y-88256552D01*
X149357009Y-88227222D01*
X149374913Y-88217652D01*
X149513533Y-88143557D01*
X149570147Y-88126384D01*
X149683373Y-88092037D01*
X149749557Y-88085519D01*
X149815740Y-88079000D01*
X149904260Y-88079000D01*
X149970443Y-88085519D01*
X149970443Y-88085519D01*
G37*
M02*
