G04 #@! TF.GenerationSoftware,KiCad,Pcbnew,5.0.1-33cea8e~67~ubuntu18.04.1*
G04 #@! TF.CreationDate,2018-12-04T13:55:11-08:00*
G04 #@! TF.ProjectId,snooping-board,736E6F6F70696E672D626F6172642E6B,rev?*
G04 #@! TF.SameCoordinates,Original*
G04 #@! TF.FileFunction,Legend,Top*
G04 #@! TF.FilePolarity,Positive*
%FSLAX46Y46*%
G04 Gerber Fmt 4.6, Leading zero omitted, Abs format (unit mm)*
G04 Created by KiCad (PCBNEW 5.0.1-33cea8e~67~ubuntu18.04.1) date Tue 04 Dec 2018 01:55:11 PM PST*
%MOMM*%
%LPD*%
G01*
G04 APERTURE LIST*
%ADD10C,0.200000*%
%ADD11C,0.300000*%
%ADD12C,0.120000*%
G04 APERTURE END LIST*
D10*
X154489142Y-99002857D02*
X154603428Y-99040952D01*
X154641523Y-99079047D01*
X154679619Y-99155238D01*
X154679619Y-99269523D01*
X154641523Y-99345714D01*
X154603428Y-99383809D01*
X154527238Y-99421904D01*
X154222476Y-99421904D01*
X154222476Y-98621904D01*
X154489142Y-98621904D01*
X154565333Y-98660000D01*
X154603428Y-98698095D01*
X154641523Y-98774285D01*
X154641523Y-98850476D01*
X154603428Y-98926666D01*
X154565333Y-98964761D01*
X154489142Y-99002857D01*
X154222476Y-99002857D01*
X154222476Y-100691904D02*
X154222476Y-99891904D01*
X154412952Y-99891904D01*
X154527238Y-99930000D01*
X154603428Y-100006190D01*
X154641523Y-100082380D01*
X154679619Y-100234761D01*
X154679619Y-100349047D01*
X154641523Y-100501428D01*
X154603428Y-100577619D01*
X154527238Y-100653809D01*
X154412952Y-100691904D01*
X154222476Y-100691904D01*
X154641523Y-97390000D02*
X154565333Y-97351904D01*
X154451047Y-97351904D01*
X154336761Y-97390000D01*
X154260571Y-97466190D01*
X154222476Y-97542380D01*
X154184380Y-97694761D01*
X154184380Y-97809047D01*
X154222476Y-97961428D01*
X154260571Y-98037619D01*
X154336761Y-98113809D01*
X154451047Y-98151904D01*
X154527238Y-98151904D01*
X154641523Y-98113809D01*
X154679619Y-98075714D01*
X154679619Y-97809047D01*
X154527238Y-97809047D01*
X154222476Y-96881904D02*
X154222476Y-96081904D01*
X154412952Y-96081904D01*
X154527238Y-96120000D01*
X154603428Y-96196190D01*
X154641523Y-96272380D01*
X154679619Y-96424761D01*
X154679619Y-96539047D01*
X154641523Y-96691428D01*
X154603428Y-96767619D01*
X154527238Y-96843809D01*
X154412952Y-96881904D01*
X154222476Y-96881904D01*
X154641523Y-94850000D02*
X154565333Y-94811904D01*
X154451047Y-94811904D01*
X154336761Y-94850000D01*
X154260571Y-94926190D01*
X154222476Y-95002380D01*
X154184380Y-95154761D01*
X154184380Y-95269047D01*
X154222476Y-95421428D01*
X154260571Y-95497619D01*
X154336761Y-95573809D01*
X154451047Y-95611904D01*
X154527238Y-95611904D01*
X154641523Y-95573809D01*
X154679619Y-95535714D01*
X154679619Y-95269047D01*
X154527238Y-95269047D01*
D11*
X145601428Y-91067142D02*
X144101428Y-91567142D01*
X145601428Y-92067142D01*
X144101428Y-92567142D02*
X145601428Y-92567142D01*
X144101428Y-93281428D02*
X145601428Y-93281428D01*
X144101428Y-94138571D01*
X145601428Y-94138571D01*
X140267428Y-90924285D02*
X140267428Y-91852857D01*
X139696000Y-91352857D01*
X139696000Y-91567142D01*
X139624571Y-91710000D01*
X139553142Y-91781428D01*
X139410285Y-91852857D01*
X139053142Y-91852857D01*
X138910285Y-91781428D01*
X138838857Y-91710000D01*
X138767428Y-91567142D01*
X138767428Y-91138571D01*
X138838857Y-90995714D01*
X138910285Y-90924285D01*
X139767428Y-92352857D02*
X138767428Y-92710000D01*
X139767428Y-93067142D01*
X140267428Y-93495714D02*
X140267428Y-94424285D01*
X139696000Y-93924285D01*
X139696000Y-94138571D01*
X139624571Y-94281428D01*
X139553142Y-94352857D01*
X139410285Y-94424285D01*
X139053142Y-94424285D01*
X138910285Y-94352857D01*
X138838857Y-94281428D01*
X138767428Y-94138571D01*
X138767428Y-93710000D01*
X138838857Y-93567142D01*
X138910285Y-93495714D01*
X142990000Y-91821142D02*
X143061428Y-91678285D01*
X143061428Y-91464000D01*
X142990000Y-91249714D01*
X142847142Y-91106857D01*
X142704285Y-91035428D01*
X142418571Y-90964000D01*
X142204285Y-90964000D01*
X141918571Y-91035428D01*
X141775714Y-91106857D01*
X141632857Y-91249714D01*
X141561428Y-91464000D01*
X141561428Y-91606857D01*
X141632857Y-91821142D01*
X141704285Y-91892571D01*
X142204285Y-91892571D01*
X142204285Y-91606857D01*
X141561428Y-92535428D02*
X143061428Y-92535428D01*
X141561428Y-93392571D01*
X143061428Y-93392571D01*
X141561428Y-94106857D02*
X143061428Y-94106857D01*
X143061428Y-94464000D01*
X142990000Y-94678285D01*
X142847142Y-94821142D01*
X142704285Y-94892571D01*
X142418571Y-94964000D01*
X142204285Y-94964000D01*
X141918571Y-94892571D01*
X141775714Y-94821142D01*
X141632857Y-94678285D01*
X141561428Y-94464000D01*
X141561428Y-94106857D01*
X146712857Y-90924285D02*
X146641428Y-91138571D01*
X146641428Y-91495714D01*
X146712857Y-91638571D01*
X146784285Y-91710000D01*
X146927142Y-91781428D01*
X147070000Y-91781428D01*
X147212857Y-91710000D01*
X147284285Y-91638571D01*
X147355714Y-91495714D01*
X147427142Y-91210000D01*
X147498571Y-91067142D01*
X147570000Y-90995714D01*
X147712857Y-90924285D01*
X147855714Y-90924285D01*
X147998571Y-90995714D01*
X148070000Y-91067142D01*
X148141428Y-91210000D01*
X148141428Y-91567142D01*
X148070000Y-91781428D01*
X146784285Y-93281428D02*
X146712857Y-93210000D01*
X146641428Y-92995714D01*
X146641428Y-92852857D01*
X146712857Y-92638571D01*
X146855714Y-92495714D01*
X146998571Y-92424285D01*
X147284285Y-92352857D01*
X147498571Y-92352857D01*
X147784285Y-92424285D01*
X147927142Y-92495714D01*
X148070000Y-92638571D01*
X148141428Y-92852857D01*
X148141428Y-92995714D01*
X148070000Y-93210000D01*
X147998571Y-93281428D01*
X146641428Y-94638571D02*
X146641428Y-93924285D01*
X148141428Y-93924285D01*
X149252857Y-90888571D02*
X149181428Y-91102857D01*
X149181428Y-91460000D01*
X149252857Y-91602857D01*
X149324285Y-91674285D01*
X149467142Y-91745714D01*
X149610000Y-91745714D01*
X149752857Y-91674285D01*
X149824285Y-91602857D01*
X149895714Y-91460000D01*
X149967142Y-91174285D01*
X150038571Y-91031428D01*
X150110000Y-90960000D01*
X150252857Y-90888571D01*
X150395714Y-90888571D01*
X150538571Y-90960000D01*
X150610000Y-91031428D01*
X150681428Y-91174285D01*
X150681428Y-91531428D01*
X150610000Y-91745714D01*
X149181428Y-92388571D02*
X150681428Y-92388571D01*
X150681428Y-92745714D01*
X150610000Y-92960000D01*
X150467142Y-93102857D01*
X150324285Y-93174285D01*
X150038571Y-93245714D01*
X149824285Y-93245714D01*
X149538571Y-93174285D01*
X149395714Y-93102857D01*
X149252857Y-92960000D01*
X149181428Y-92745714D01*
X149181428Y-92388571D01*
X149610000Y-93817142D02*
X149610000Y-94531428D01*
X149181428Y-93674285D02*
X150681428Y-94174285D01*
X149181428Y-94674285D01*
X152289142Y-106866571D02*
X152646285Y-107866571D01*
X153003428Y-106866571D01*
X153860571Y-106366571D02*
X154003428Y-106366571D01*
X154146285Y-106438000D01*
X154217714Y-106509428D01*
X154289142Y-106652285D01*
X154360571Y-106938000D01*
X154360571Y-107295142D01*
X154289142Y-107580857D01*
X154217714Y-107723714D01*
X154146285Y-107795142D01*
X154003428Y-107866571D01*
X153860571Y-107866571D01*
X153717714Y-107795142D01*
X153646285Y-107723714D01*
X153574857Y-107580857D01*
X153503428Y-107295142D01*
X153503428Y-106938000D01*
X153574857Y-106652285D01*
X153646285Y-106509428D01*
X153717714Y-106438000D01*
X153860571Y-106366571D01*
X155003428Y-107723714D02*
X155074857Y-107795142D01*
X155003428Y-107866571D01*
X154932000Y-107795142D01*
X155003428Y-107723714D01*
X155003428Y-107866571D01*
X156503428Y-107866571D02*
X155646285Y-107866571D01*
X156074857Y-107866571D02*
X156074857Y-106366571D01*
X155932000Y-106580857D01*
X155789142Y-106723714D01*
X155646285Y-106795142D01*
X140267428Y-101084285D02*
X140267428Y-102012857D01*
X139696000Y-101512857D01*
X139696000Y-101727142D01*
X139624571Y-101870000D01*
X139553142Y-101941428D01*
X139410285Y-102012857D01*
X139053142Y-102012857D01*
X138910285Y-101941428D01*
X138838857Y-101870000D01*
X138767428Y-101727142D01*
X138767428Y-101298571D01*
X138838857Y-101155714D01*
X138910285Y-101084285D01*
X139767428Y-102512857D02*
X138767428Y-102870000D01*
X139767428Y-103227142D01*
X140267428Y-103655714D02*
X140267428Y-104584285D01*
X139696000Y-104084285D01*
X139696000Y-104298571D01*
X139624571Y-104441428D01*
X139553142Y-104512857D01*
X139410285Y-104584285D01*
X139053142Y-104584285D01*
X138910285Y-104512857D01*
X138838857Y-104441428D01*
X138767428Y-104298571D01*
X138767428Y-103870000D01*
X138838857Y-103727142D01*
X138910285Y-103655714D01*
X142990000Y-101473142D02*
X143061428Y-101330285D01*
X143061428Y-101116000D01*
X142990000Y-100901714D01*
X142847142Y-100758857D01*
X142704285Y-100687428D01*
X142418571Y-100616000D01*
X142204285Y-100616000D01*
X141918571Y-100687428D01*
X141775714Y-100758857D01*
X141632857Y-100901714D01*
X141561428Y-101116000D01*
X141561428Y-101258857D01*
X141632857Y-101473142D01*
X141704285Y-101544571D01*
X142204285Y-101544571D01*
X142204285Y-101258857D01*
X141561428Y-102187428D02*
X143061428Y-102187428D01*
X141561428Y-103044571D01*
X143061428Y-103044571D01*
X141561428Y-103758857D02*
X143061428Y-103758857D01*
X143061428Y-104116000D01*
X142990000Y-104330285D01*
X142847142Y-104473142D01*
X142704285Y-104544571D01*
X142418571Y-104616000D01*
X142204285Y-104616000D01*
X141918571Y-104544571D01*
X141775714Y-104473142D01*
X141632857Y-104330285D01*
X141561428Y-104116000D01*
X141561428Y-103758857D01*
X145601428Y-101481142D02*
X144101428Y-101981142D01*
X145601428Y-102481142D01*
X144101428Y-102981142D02*
X145601428Y-102981142D01*
X144101428Y-103695428D02*
X145601428Y-103695428D01*
X144101428Y-104552571D01*
X145601428Y-104552571D01*
X146712857Y-100830285D02*
X146641428Y-101044571D01*
X146641428Y-101401714D01*
X146712857Y-101544571D01*
X146784285Y-101616000D01*
X146927142Y-101687428D01*
X147070000Y-101687428D01*
X147212857Y-101616000D01*
X147284285Y-101544571D01*
X147355714Y-101401714D01*
X147427142Y-101116000D01*
X147498571Y-100973142D01*
X147570000Y-100901714D01*
X147712857Y-100830285D01*
X147855714Y-100830285D01*
X147998571Y-100901714D01*
X148070000Y-100973142D01*
X148141428Y-101116000D01*
X148141428Y-101473142D01*
X148070000Y-101687428D01*
X146784285Y-103187428D02*
X146712857Y-103116000D01*
X146641428Y-102901714D01*
X146641428Y-102758857D01*
X146712857Y-102544571D01*
X146855714Y-102401714D01*
X146998571Y-102330285D01*
X147284285Y-102258857D01*
X147498571Y-102258857D01*
X147784285Y-102330285D01*
X147927142Y-102401714D01*
X148070000Y-102544571D01*
X148141428Y-102758857D01*
X148141428Y-102901714D01*
X148070000Y-103116000D01*
X147998571Y-103187428D01*
X146641428Y-104544571D02*
X146641428Y-103830285D01*
X148141428Y-103830285D01*
X149252857Y-100794571D02*
X149181428Y-101008857D01*
X149181428Y-101366000D01*
X149252857Y-101508857D01*
X149324285Y-101580285D01*
X149467142Y-101651714D01*
X149610000Y-101651714D01*
X149752857Y-101580285D01*
X149824285Y-101508857D01*
X149895714Y-101366000D01*
X149967142Y-101080285D01*
X150038571Y-100937428D01*
X150110000Y-100866000D01*
X150252857Y-100794571D01*
X150395714Y-100794571D01*
X150538571Y-100866000D01*
X150610000Y-100937428D01*
X150681428Y-101080285D01*
X150681428Y-101437428D01*
X150610000Y-101651714D01*
X149181428Y-102294571D02*
X150681428Y-102294571D01*
X150681428Y-102651714D01*
X150610000Y-102866000D01*
X150467142Y-103008857D01*
X150324285Y-103080285D01*
X150038571Y-103151714D01*
X149824285Y-103151714D01*
X149538571Y-103080285D01*
X149395714Y-103008857D01*
X149252857Y-102866000D01*
X149181428Y-102651714D01*
X149181428Y-102294571D01*
X149610000Y-103723142D02*
X149610000Y-104437428D01*
X149181428Y-103580285D02*
X150681428Y-104080285D01*
X149181428Y-104580285D01*
D12*
G04 #@! TO.C,J1*
X133852000Y-92880000D02*
X132052000Y-92880000D01*
X132052000Y-92880000D02*
X132052000Y-94730000D01*
X132052000Y-94730000D02*
X131312000Y-94730000D01*
X133852000Y-102700000D02*
X132052000Y-102700000D01*
X132052000Y-102700000D02*
X132052000Y-100850000D01*
X137172000Y-92880000D02*
X137722000Y-92880000D01*
X137722000Y-92880000D02*
X137722000Y-102700000D01*
X137722000Y-102700000D02*
X137172000Y-102700000D01*
G04 #@! TO.C,J2*
X158296000Y-102700000D02*
X157746000Y-102700000D01*
X158296000Y-92880000D02*
X158296000Y-102700000D01*
X157746000Y-92880000D02*
X158296000Y-92880000D01*
X152626000Y-102700000D02*
X152626000Y-100850000D01*
X154426000Y-102700000D02*
X152626000Y-102700000D01*
X152626000Y-94730000D02*
X151886000Y-94730000D01*
X152626000Y-92880000D02*
X152626000Y-94730000D01*
X154426000Y-92880000D02*
X152626000Y-92880000D01*
G04 #@! TO.C,J3*
X140970000Y-107930000D02*
X151190000Y-107930000D01*
X151190000Y-107930000D02*
X151190000Y-105270000D01*
X151190000Y-105270000D02*
X140970000Y-105270000D01*
X140970000Y-105270000D02*
X140970000Y-107930000D01*
X139700000Y-107930000D02*
X138370000Y-107930000D01*
X138370000Y-107930000D02*
X138370000Y-106600000D01*
G04 #@! TO.C,J4*
X140970000Y-90310000D02*
X151190000Y-90310000D01*
X151190000Y-90310000D02*
X151190000Y-87650000D01*
X151190000Y-87650000D02*
X140970000Y-87650000D01*
X140970000Y-87650000D02*
X140970000Y-90310000D01*
X139700000Y-90310000D02*
X138370000Y-90310000D01*
X138370000Y-90310000D02*
X138370000Y-88980000D01*
G04 #@! TD*
M02*
